# xmcd
#
# Track frame offsets: 
#        150
#        19065
#        36504
#        62430
#        82740
#        93483
#        115899
#        139080
#        158283
#        175002
#        185952
#        207288
#        234546
#        251715
#        277632
#
# Disc length: 4064 seconds
#
# Revision: 0
# Processed by: cddbd v1.5.2PL0 Copyright (c) Steve Scherf et al.
# Submitted via: ExactAudioCopy v1.3
#
DISCID=bf0fde0f
DTITLE=Dixie Chicks - Home
DYEAR=2002
DGENRE=Country
TTITLE0=Long Time Gone
TTITLE1=Landslide
TTITLE2=Travelin' Soldier
TTITLE3=Truth No. 2
TTITLE4=White Trash Wedding
TTITLE5=A Home
TTITLE6=More Love
TTITLE7=I Believe in Love
TTITLE8=Tortured, Tangled Hearts
TTITLE9=Lil' Jack Slade
TTITLE10=Godspeed (Sweet Dreams)
TTITLE11=Top of The World
TTITLE12=Landslide (The Sheryl Crow Remix)[bonus track]
TTITLE13=Travelin' Soldier[bonus track]
TTITLE14=Top of The World[bonus track]
EXTD=
EXTT0=
EXTT1=
EXTT2=
EXTT3=
EXTT4=
EXTT5=
EXTT6=
EXTT7=
EXTT8=
EXTT9=
EXTT10=
EXTT11=
EXTT12=
EXTT13=
EXTT14=
PLAYORDER=
